<svg width="106" height="97" viewBox="0 0 106 97" fill="none" xmlns="http://www.w3.org/2000/svg">
<path fill-rule="evenodd" clip-rule="evenodd" d="M75.5009 23C75.5009 35.4264 65.4273 45.5 53.0009 45.5C40.5745 45.5 30.5009 35.4264 30.5009 23C30.5009 10.5736 40.5745 0.5 53.0009 0.5C65.4273 0.5 75.5009 10.5736 75.5009 23ZM68.0009 23C68.0009 31.2843 61.2852 38 53.0009 38C44.7166 38 38.0009 31.2843 38.0009 23C38.0009 14.7157 44.7166 8 53.0009 8C61.2852 8 68.0009 14.7157 68.0009 23Z" fill="#F2324F"/>
<path d="M53.0009 56.75C28.722 56.75 8.03569 71.1065 0.155762 91.2202C2.07537 93.1263 4.09753 94.9294 6.21324 96.6202C12.081 78.1538 30.4886 64.25 53.0009 64.25C75.5133 64.25 93.9209 78.1539 99.7886 96.6203C101.904 94.9294 103.926 93.1264 105.846 91.2202C97.9662 71.1066 77.2799 56.75 53.0009 56.75Z" fill="#F2324F"/>
</svg>
