<svg width="42" height="60" viewBox="0 0 42 60" fill="none" xmlns="http://www.w3.org/2000/svg">
<path d="M21 59.1666C20.3195 59.1666 19.7362 58.9721 19.25 58.5832C18.7639 58.1944 18.3993 57.6839 18.1563 57.052C17.2327 54.3298 16.066 51.7777 14.6563 49.3957C13.2952 47.0138 11.375 44.2187 8.89588 41.0103C6.41671 37.802 4.39935 34.7395 2.84379 31.8228C1.33685 28.9062 0.583374 25.3819 0.583374 21.2499C0.583374 15.5624 2.55212 10.7499 6.48962 6.81241C10.4757 2.82631 15.3125 0.833252 21 0.833252C26.6875 0.833252 31.5 2.82631 35.4375 6.81241C39.4237 10.7499 41.4167 15.5624 41.4167 21.2499C41.4167 25.6735 40.566 29.368 38.8646 32.3332C37.2118 35.2499 35.2917 38.1423 33.1042 41.0103C30.4792 44.5103 28.4862 47.427 27.125 49.7603C25.8125 52.0451 24.7188 54.4756 23.8438 57.052C23.6007 57.7326 23.2118 58.2673 22.6771 58.6562C22.191 58.9964 21.632 59.1666 21 59.1666ZM21 48.7395C21.8264 47.0867 22.75 45.4582 23.7709 43.8541C24.8403 42.2499 26.3959 40.111 28.4375 37.4374C30.5278 34.7152 32.2292 32.2117 33.5417 29.927C34.9028 27.5937 35.5834 24.7013 35.5834 21.2499C35.5834 17.2152 34.1493 13.7881 31.2813 10.9687C28.4618 8.10061 25.0348 6.66658 21 6.66658C16.9653 6.66658 13.5139 8.10061 10.6459 10.9687C7.82643 13.7881 6.41671 17.2152 6.41671 21.2499C6.41671 24.7013 7.07296 27.5937 8.38546 29.927C9.74657 32.2117 11.4723 34.7152 13.5625 37.4374C15.6042 40.111 17.1355 42.2499 18.1563 43.8541C19.2257 45.4582 20.1737 47.0867 21 48.7395ZM21 28.5416C23.0417 28.5416 24.7674 27.8367 26.1771 26.427C27.5868 25.0173 28.2917 23.2916 28.2917 21.2499C28.2917 19.2082 27.5868 17.4826 26.1771 16.0728C24.7674 14.6631 23.0417 13.9583 21 13.9583C18.9584 13.9583 17.2327 14.6631 15.823 16.0728C14.4132 17.4826 13.7084 19.2082 13.7084 21.2499C13.7084 23.2916 14.4132 25.0173 15.823 26.427C17.2327 27.8367 18.9584 28.5416 21 28.5416Z" fill="#F2324F"/>
</svg>
