<svg width="48" height="48" viewBox="0 0 48 48" fill="none" xmlns="http://www.w3.org/2000/svg">
<path d="M29.3542 10.5833C31.3891 10.9803 33.2592 11.9755 34.7252 13.4415C36.1912 14.9075 37.1863 16.7776 37.5834 18.8125M29.3542 2.25C33.5818 2.71966 37.5242 4.61286 40.5339 7.61877C43.5435 10.6247 45.4417 14.5646 45.9167 18.7917M43.8334 35.4167V41.6667C43.8357 42.2469 43.7169 42.8212 43.4844 43.3528C43.252 43.8844 42.9111 44.3616 42.4835 44.7539C42.056 45.1461 41.5512 45.4448 41.0016 45.6306C40.4519 45.8165 39.8695 45.8856 39.2917 45.8333C32.8809 45.1368 26.7229 42.9461 21.3125 39.4375C16.2788 36.2389 12.0111 31.9712 8.81252 26.9375C5.29164 21.5025 3.10053 15.3146 2.41669 8.875C2.36463 8.29889 2.4331 7.71825 2.61773 7.17005C2.80237 6.62185 3.09913 6.1181 3.48912 5.69088C3.87911 5.26365 4.35378 4.92231 4.88292 4.68859C5.41206 4.45486 5.98407 4.33388 6.56252 4.33333H12.8125C13.8236 4.32338 14.8038 4.68141 15.5704 5.34069C16.337 5.99997 16.8377 6.91551 16.9792 7.91667C17.243 9.91681 17.7322 11.8807 18.4375 13.7708C18.7178 14.5165 18.7785 15.3269 18.6123 16.106C18.4462 16.8851 18.0602 17.6002 17.5 18.1667L14.8542 20.8125C17.8199 26.0282 22.1385 30.3468 27.3542 33.3125L30 30.6667C30.5665 30.1065 31.2816 29.7205 32.0607 29.5544C32.8398 29.3882 33.6502 29.4489 34.3959 29.7292C36.286 30.4345 38.2499 30.9237 40.25 31.1875C41.262 31.3303 42.1863 31.84 42.847 32.6198C43.5077 33.3996 43.8587 34.395 43.8334 35.4167Z" stroke="#F2324F" stroke-width="4" stroke-linecap="round" stroke-linejoin="round"/>
</svg>
