<svg width="48" height="49" viewBox="0 0 48 49" fill="none" xmlns="http://www.w3.org/2000/svg">
<path d="M12 18.8333V4.83325H36V18.8333M12 36.8333H8C6.93913 36.8333 5.92172 36.4118 5.17157 35.6617C4.42143 34.9115 4 33.8941 4 32.8333V22.8333C4 21.7724 4.42143 20.755 5.17157 20.0048C5.92172 19.2547 6.93913 18.8333 8 18.8333H40C41.0609 18.8333 42.0783 19.2547 42.8284 20.0048C43.5786 20.755 44 21.7724 44 22.8333V32.8333C44 33.8941 43.5786 34.9115 42.8284 35.6617C42.0783 36.4118 41.0609 36.8333 40 36.8333H36M12 28.8333H36V44.8333H12V28.8333Z" stroke="#F2324F" stroke-width="4" stroke-linecap="round" stroke-linejoin="round"/>
</svg>
